<svg width="40" height="42" viewBox="0 0 40 42" fill="none" xmlns="http://www.w3.org/2000/svg">
<rect y="-3.05176e-05" width="40" height="41.3491" rx="20" fill="#FF3E79"/>
<path d="M20.5 19.6398C22.9853 19.6398 25 17.5571 25 14.988C25 12.4189 22.9853 10.3362 20.5 10.3362C18.0147 10.3362 16 12.4189 16 14.988C16 17.5571 18.0147 19.6398 20.5 19.6398Z" fill="white"/>
<path d="M10.0166 27.509C9.88693 28.263 10.5352 28.944 11.339 28.944H28.6604C29.4902 28.944 30.1125 28.263 29.9829 27.509C29.2309 23.1551 25.0561 20.6742 19.9997 20.6742C14.9433 20.6742 10.7686 23.1551 10.0166 27.509Z" fill="white"/>
</svg>
